<svg height="512" viewBox="0 0 64 64" width="512" xmlns="http://www.w3.org/2000/svg" xmlns:xlink="http://www.w3.org/1999/xlink"><linearGradient id="New_Gradient_Swatch_3" gradientUnits="userSpaceOnUse" x1="32.081" x2="31.518" y1="63.922" y2="1.979"><stop offset="0" stop-color="#006df0"/><stop offset="1" stop-color="#00e7f0"/></linearGradient><linearGradient id="New_Gradient_Swatch_3-2" x1="17.382" x2="16.819" xlink:href="#New_Gradient_Swatch_3" y1="64.055" y2="2.112"/><linearGradient id="New_Gradient_Swatch_3-3" x1="22.946" x2="22.383" xlink:href="#New_Gradient_Swatch_3" y1="64.005" y2="2.062"/><linearGradient id="New_Gradient_Swatch_3-4" x1="33.926" x2="33.363" xlink:href="#New_Gradient_Swatch_3" y1="63.905" y2="1.962"/><linearGradient id="New_Gradient_Swatch_3-5" x1="28.436" x2="27.873" xlink:href="#New_Gradient_Swatch_3" y1="63.955" y2="2.012"/><linearGradient id="New_Gradient_Swatch_3-6" x1="23.373" x2="22.81" xlink:href="#New_Gradient_Swatch_3" y1="64.001" y2="2.058"/><linearGradient id="New_Gradient_Swatch_3-7" x1="29.372" x2="28.809" xlink:href="#New_Gradient_Swatch_3" y1="63.946" y2="2.003"/><linearGradient id="New_Gradient_Swatch_3-8" x1="29.345" x2="28.782" xlink:href="#New_Gradient_Swatch_3" y1="63.947" y2="2.004"/><linearGradient id="New_Gradient_Swatch_3-9" x1="44.844" x2="44.281" xlink:href="#New_Gradient_Swatch_3" y1="63.806" y2="1.863"/><linearGradient id="New_Gradient_Swatch_3-10" x1="24.318" x2="23.755" xlink:href="#New_Gradient_Swatch_3" y1="63.992" y2="2.049"/><linearGradient id="New_Gradient_Swatch_3-11" x1="33.317" x2="32.754" xlink:href="#New_Gradient_Swatch_3" y1="63.911" y2="1.967"/><linearGradient id="New_Gradient_Swatch_3-12" x1="43.317" x2="42.753" xlink:href="#New_Gradient_Swatch_3" y1="63.82" y2="1.877"/><linearGradient id="New_Gradient_Swatch_3-13" x1="38.344" x2="37.781" xlink:href="#New_Gradient_Swatch_3" y1="63.865" y2="1.922"/><linearGradient id="New_Gradient_Swatch_3-14" x1="15.528" x2="14.965" xlink:href="#New_Gradient_Swatch_3" y1="64.072" y2="2.129"/><linearGradient id="New_Gradient_Swatch_3-15" x1="19.528" x2="18.964" xlink:href="#New_Gradient_Swatch_3" y1="64.036" y2="2.093"/><linearGradient id="New_Gradient_Swatch_3-16" x1="23.527" x2="22.964" xlink:href="#New_Gradient_Swatch_3" y1="64" y2="2.056"/><g id="Programmer-2" data-name="Programmer"><path d="m44 36h-6v-2h13a3 3 0 0 0 3-3v-26a3 3 0 0 0 -3-3h-38a3 3 0 0 0 -3 3v26a3 3 0 0 0 3 3h13v2h-6a13.015 13.015 0 0 0 -13 13v12a1 1 0 0 0 1 1h48a1 1 0 0 0 1-1v-12a13.015 13.015 0 0 0 -13-13zm-5.03 9.243 1.811-7.243h.99l-4.584 22h-.319l-1.824-12.763 1.414-2.122.954.694a1 1 0 0 0 1.558-.566zm-5.5.757h-2.93l-1.38-2.062 2.84-2.065 2.84 2.065zm-2.6 2h2.266l1.714 12h-5.697zm6.523-4.681-3.693-2.683 3.625-2.636h1.394zm-24.393-39.319h38a1 1 0 0 1 1 1v3h-40v-3a1 1 0 0 1 1-1zm-1 27v-21h40v21a1 1 0 0 1 -1 1h-38a1 1 0 0 1 -1-1zm24 3v2.491l-4 2.909-4-2.909v-2.491zm-9.325 4 3.625 2.636-3.69 2.683-1.329-5.319zm-1.645 7.243a1 1 0 0 0 1.558.566l.954-.694 1.414 2.122-1.824 12.763h-.319l-4.584-22h.99zm-16.03 3.757a11.013 11.013 0 0 1 11-11h.187l4.584 22h-5.771v-12a1 1 0 0 0 -2 0v12h-8zm46 11h-8v-11a1 1 0 0 0 -2 0v11h-5.771l4.584-22h.187a11.013 11.013 0 0 1 11 11z" fill="url(#New_Gradient_Swatch_3)"/><path d="m17 14a1 1 0 0 0 -1 1v14a1 1 0 0 0 2 0v-14a1 1 0 0 0 -1-1z" fill="url(#New_Gradient_Swatch_3-2)"/><path d="m20.445 16.832 3 2a1 1 0 1 0 1.11-1.664l-1.755-1.168 1.752-1.168a1 1 0 1 0 -1.11-1.664l-3 2a1 1 0 0 0 0 1.664z" fill="url(#New_Gradient_Swatch_3-3)"/><path d="m31.168 18.555a1 1 0 0 0 1.387.277l3-2a1 1 0 0 0 0-1.664l-3-2a1 1 0 0 0 -1.11 1.664l1.755 1.168-1.752 1.168a1 1 0 0 0 -.28 1.387z" fill="url(#New_Gradient_Swatch_3-4)"/><path d="m26.684 19.949a1 1 0 0 0 1.264-.633l2-6a1 1 0 1 0 -1.9-.632l-2 6a1 1 0 0 0 .636 1.265z" fill="url(#New_Gradient_Swatch_3-5)"/><path d="m20 22h6v2h-6z" fill="url(#New_Gradient_Swatch_3-6)"/><path d="m28 22h2v2h-2z" fill="url(#New_Gradient_Swatch_3-7)"/><path d="m23 25h12v2h-12z" fill="url(#New_Gradient_Swatch_3-8)"/><path d="m41 25h7v2h-7z" fill="url(#New_Gradient_Swatch_3-9)"/><path d="m23 28h2v2h-2z" fill="url(#New_Gradient_Swatch_3-10)"/><path d="m27 28h12v2h-12z" fill="url(#New_Gradient_Swatch_3-11)"/><path d="m41 28h4v2h-4z" fill="url(#New_Gradient_Swatch_3-12)"/><path d="m37 25h2v2h-2z" fill="url(#New_Gradient_Swatch_3-13)"/><path d="m14 5h2v2h-2z" fill="url(#New_Gradient_Swatch_3-14)"/><path d="m18 5h2v2h-2z" fill="url(#New_Gradient_Swatch_3-15)"/><path d="m22 5h2v2h-2z" fill="url(#New_Gradient_Swatch_3-16)"/></g></svg>