<svg xmlns="http://www.w3.org/2000/svg" viewBox="0 0 1829.28 166.02"><defs><style>.cls-1{fill:#101010;}.cls-2{fill:#595959;}</style></defs><title>Victor Samuel</title><g id="Capa_2" data-name="Capa 2"><g id="Capa_1-2" data-name="Capa 1"><path class="cls-1" d="M163.89,2.24,99,164.24h-34L0,2.24H30.24a12.73,12.73,0,0,1,7.9,2.28,14.47,14.47,0,0,1,4.56,5.84L74.05,97.08q2.22,5.67,4.34,12.4t4,14.07q1.56-7.35,3.5-14.07t4.17-12.4l31.13-86.72a13.51,13.51,0,0,1,4.4-5.62,12.22,12.22,0,0,1,7.83-2.5Z"/><path class="cls-1" d="M219.28,164.24h-38V2.24h38Z"/><path class="cls-1" d="M364.71,122.2a7.44,7.44,0,0,1,2.67.51,7.34,7.34,0,0,1,2.57,1.72l14.94,15.73A62.1,62.1,0,0,1,360.3,159.5Q345.53,166,325.35,166q-18.51,0-33.17-6.3a71.69,71.69,0,0,1-24.87-17.39A76.65,76.65,0,0,1,251.65,116,97,97,0,0,1,246.18,83a91.53,91.53,0,0,1,5.91-33.4A77.72,77.72,0,0,1,268.7,23.3,74.89,74.89,0,0,1,294.35,6.13,85.77,85.77,0,0,1,327.24,0a87.59,87.59,0,0,1,17.23,1.62,83.37,83.37,0,0,1,15.11,4.46,69.09,69.09,0,0,1,12.93,6.85A68.32,68.32,0,0,1,383,21.63L370.28,38.69a16,16,0,0,1-2.9,2.84,7.49,7.49,0,0,1-4.68,1.29,8.29,8.29,0,0,1-3.79-.9,42,42,0,0,1-3.79-2.17L350.71,37A34.57,34.57,0,0,0,345,34.17a48.24,48.24,0,0,0-7.7-2.17A52.78,52.78,0,0,0,327,31.11a41.66,41.66,0,0,0-17.12,3.45,37.42,37.42,0,0,0-13.38,10.1,46.67,46.67,0,0,0-8.69,16.27,72.48,72.48,0,0,0-3.07,22,66.76,66.76,0,0,0,3.4,22.18,48.62,48.62,0,0,0,9.26,16.34,39.23,39.23,0,0,0,13.65,10.09A40.94,40.94,0,0,0,327.8,135a78.9,78.9,0,0,0,9.37-.51,42.23,42.23,0,0,0,7.91-1.67,32.26,32.26,0,0,0,6.92-3.12,43.58,43.58,0,0,0,6.57-5,13.4,13.4,0,0,1,2.9-1.84A7.66,7.66,0,0,1,364.71,122.2Z"/><path class="cls-1" d="M522.28,31.24h-45v133h-38v-133h-46v-30h129Z"/><path class="cls-1" d="M701.77,83a87.35,87.35,0,0,1-6.08,32.78A77.5,77.5,0,0,1,652,159.67a97.09,97.09,0,0,1-69.07,0A77.52,77.52,0,0,1,539,115.74,87.34,87.34,0,0,1,533,83,87.36,87.36,0,0,1,539,50.17,78.09,78.09,0,0,1,556.2,23.86a79.35,79.35,0,0,1,26.71-17.5A90.74,90.74,0,0,1,617.47,0,89.81,89.81,0,0,1,652,6.41,79.62,79.62,0,0,1,678.57,24a78.46,78.46,0,0,1,17.12,26.32A87,87,0,0,1,701.77,83Zm-38.58,0a70.29,70.29,0,0,0-3.12-21.69,46.13,46.13,0,0,0-9-16.34,38.69,38.69,0,0,0-14.33-10.25,49.29,49.29,0,0,0-19.29-3.57A50,50,0,0,0,598,34.68a38.58,38.58,0,0,0-14.39,10.25,46,46,0,0,0-9,16.34A70,70,0,0,0,571.53,83a70.28,70.28,0,0,0,3.13,21.79,46,46,0,0,0,9,16.34A38,38,0,0,0,598,131.29a50.72,50.72,0,0,0,19.45,3.51,50,50,0,0,0,19.29-3.51,38.12,38.12,0,0,0,14.33-10.2,46.13,46.13,0,0,0,9-16.34A70.59,70.59,0,0,0,663.19,83Z"/><path class="cls-1" d="M862.29,164.24h-35q-9.46,0-13.58-7.13L786.76,110a13,13,0,0,0-4.23-4.4,13.14,13.14,0,0,0-6.68-1.39h-9.57v60h-38V2.24h53.29q17.76,0,30.3,3.61t20.46,10.07a38.07,38.07,0,0,1,11.53,15.23,50.1,50.1,0,0,1,3.59,19.12,50.92,50.92,0,0,1-2.13,14.9,45.9,45.9,0,0,1-6.3,13,47.41,47.41,0,0,1-10.29,10.62,54.8,54.8,0,0,1-14.11,7.67,34.55,34.55,0,0,1,7,4.73,32.74,32.74,0,0,1,5.85,6.73Zm-80.9-86a38.6,38.6,0,0,0,13.06-1.95,23.61,23.61,0,0,0,8.83-5.38,20.59,20.59,0,0,0,5-8.06,30.82,30.82,0,0,0,1.56-9.94q0-10.68-7-16.67t-21.5-6H766.28v48Z"/><path class="cls-2" d="M1024.22,31.11a9.71,9.71,0,0,1-2.57,3,5.56,5.56,0,0,1-3.34.95,8.68,8.68,0,0,1-4.74-1.78c-1.75-1.19-3.9-2.51-6.47-4a56.82,56.82,0,0,0-9.08-4,38,38,0,0,0-12.49-1.84,37.4,37.4,0,0,0-11.76,1.68,24.23,24.23,0,0,0-8.53,4.68,19.29,19.29,0,0,0-5.19,7.08,22.47,22.47,0,0,0-1.73,8.86,15.9,15.9,0,0,0,3.24,10.21,27.64,27.64,0,0,0,8.53,7A69.11,69.11,0,0,0,982.18,68q6.81,2.17,13.88,4.63T1010,78.16A47.17,47.17,0,0,1,1022,86.08a36.21,36.21,0,0,1,8.53,11.71q3.24,6.92,3.24,16.83a54.42,54.42,0,0,1-3.68,20.07A47.18,47.18,0,0,1,1019.48,151a49.77,49.77,0,0,1-17.17,11,63.24,63.24,0,0,1-23.25,4,74.39,74.39,0,0,1-15-1.5,78.43,78.43,0,0,1-13.93-4.24,69.34,69.34,0,0,1-12.43-6.63,61.67,61.67,0,0,1-10.37-8.7l7.58-12.49a7.31,7.31,0,0,1,2.56-2.45,6.88,6.88,0,0,1,3.46-.89,9.75,9.75,0,0,1,5.69,2.39q3.12,2.4,7.52,5.24A58.06,58.06,0,0,0,964.79,142a41.87,41.87,0,0,0,14.94,2.39q14.16,0,21.91-6.91t7.75-19.07q0-6.8-3.23-11.09a26.3,26.3,0,0,0-8.53-7.19,61.31,61.31,0,0,0-12.1-4.91q-6.81-2-13.83-4.29a135.9,135.9,0,0,1-13.82-5.35,44,44,0,0,1-12.1-8,37.14,37.14,0,0,1-8.53-12.27Q934,58,934,47.05a43.37,43.37,0,0,1,13.32-31.27A48.47,48.47,0,0,1,963.45,5.69,59,59,0,0,1,985.3,1.9a71.38,71.38,0,0,1,25.37,4.34,57.71,57.71,0,0,1,19.9,12.38Z"/><path class="cls-2" d="M1197.81,164.24h-21a8.46,8.46,0,0,1-5.51-1.71,11.1,11.1,0,0,1-3.19-4.24l-13.23-35H1086.5l-13.23,35.05a10.56,10.56,0,0,1-3.08,4.08,8.21,8.21,0,0,1-5.51,1.87h-21l63.84-161H1134Zm-49.6-60-22.08-58.65a158.65,158.65,0,0,1-5.46-17.28q-1.23,5.24-2.68,9.64t-2.68,7.75l-22.07,58.54Z"/><path class="cls-2" d="M1391.28,3.24v161h-23V54.58q0-2.67.17-5.84t.5-6.39l-51.67,95q-3,5.9-9.27,5.89h-3.68a9.67,9.67,0,0,1-9.26-5.89l-52.46-95.22c.23,2.15.39,4.3.5,6.45s.17,4.15.17,6V164.24h-23V3.24h19.53a18.53,18.53,0,0,1,5.36.61c1.27.42,2.42,1.66,3.46,3.75l51.57,93.58q1.68,3.24,3.18,6.65t2.74,7q1.34-3.57,2.84-7.1t3.18-6.76L1362.93,7.6c1-2.09,2.19-3.33,3.46-3.75a18.53,18.53,0,0,1,5.36-.61Z"/><path class="cls-2" d="M1497.73,142.73a42,42,0,0,0,16.64-3.13,35.42,35.42,0,0,0,12.43-8.69,37.71,37.71,0,0,0,7.79-13.44,53.47,53.47,0,0,0,2.69-17.45V3.24h26V100a73.79,73.79,0,0,1-4.53,26.2,58.48,58.48,0,0,1-33.64,34.51,77.78,77.78,0,0,1-54.66,0,58.48,58.48,0,0,1-33.64-34.51,73.79,73.79,0,0,1-4.53-26.2V3.24h26V99.91a53.74,53.74,0,0,0,2.69,17.45,38.69,38.69,0,0,0,7.73,13.49,34.34,34.34,0,0,0,12.39,8.75A42,42,0,0,0,1497.73,142.73Z"/><path class="cls-2" d="M1703.28,143.24l-.11,21h-99.89V3.24h100v21h-73v49h59v20h-60v50Z"/><path class="cls-2" d="M1829.28,142.24v22h-93V3.24h26v139Z"/></g></g></svg>